<svg id="Layer_1" data-name="Layer 1" xmlns="http://www.w3.org/2000/svg" xmlns:xlink="http://www.w3.org/1999/xlink" viewBox="0 0 1235 1235"><defs><style>.cls-1{fill:url(#linear-gradient);}.cls-2{fill:#fff;}.cls-3{fill:none;stroke:#fff;stroke-miterlimit:10;stroke-width:2px;}</style><linearGradient id="linear-gradient" x1="389.95" y1="1010.14" x2="830.05" y2="247.86" gradientUnits="userSpaceOnUse"><stop offset="0" stop-color="#a081d9"/><stop offset="0.26" stop-color="#6c98f5"/><stop offset="0.52" stop-color="#5ee7f9"/><stop offset="0.55" stop-color="#76e6f0"/><stop offset="0.62" stop-color="#9de5e0"/><stop offset="0.67" stop-color="#bae4d5"/><stop offset="0.72" stop-color="#cbe3ce"/><stop offset="0.76" stop-color="#d1e3cc"/><stop offset="0.77" stop-color="#d0deca"/><stop offset="0.93" stop-color="#c1a2b0"/><stop offset="1" stop-color="#bb8ba6"/></linearGradient></defs><path class="cls-1" d="M610,1069a438.67,438.67,0,1,1,171.27-34.58A437.16,437.16,0,0,1,610,1069Zm0-865a423.68,423.68,0,1,0,165.43,33.4A422.33,422.33,0,0,0,610,204Z"/><path class="cls-2" d="M380.93,650.09a229.65,229.65,0,0,0-27.88-8.1q-15.68-3.45-23-6.9t-7.3-10.36q0-6.11,4-9.43T338.44,612q9.82,0,16.34,5.17a23.6,23.6,0,0,1,8.36,14.21h42.49q-4.26-23.1-21.11-37.18t-45-14.07q-27.63,0-42.76,12.35t-15.13,32.26q0,15.4,7.7,24.3a44.74,44.74,0,0,0,18.32,12.88,189.21,189.21,0,0,0,27.09,7.43q16.45,3.72,23.76,7t7.31,11a12.07,12.07,0,0,1-4,9.43q-4,3.58-11.68,3.58-11.16,0-18.19-5t-8.1-14.61H280q4,24.71,22,38T350.13,732q17.79,0,30.8-5.57T400.85,711a38.27,38.27,0,0,0,6.9-22.57q0-15.66-8-25A46.18,46.18,0,0,0,380.93,650.09Z"/><path class="cls-2" d="M538.14,660.58q0,16.2-8,25t-21.78,8.77q-13.27,0-21.11-8.37t-7.83-23.5V582H434.31v86q0,29.73,15,46.73t40.5,17q16.72,0,29.34-7.7a49.26,49.26,0,0,0,19-20.72v26.82h45.67V582H538.14Z"/><path class="cls-2" d="M741.41,589.28a60,60,0,0,0-32.79-9.16q-17,0-29.22,7.7a44.79,44.79,0,0,0-17.79,21V533.65H616.2v196.5h45.41V703.33a44.69,44.69,0,0,0,17.79,21q12.21,7.71,29.22,7.7a60,60,0,0,0,32.79-9.16q14.48-9.17,22.84-26.42t8.36-40.36q0-23.37-8.36-40.5T741.41,589.28Zm-23.9,93.34q-8.89,9.55-23.5,9.56-14.34,0-23.5-9.82t-9.16-26.29q0-16.74,9.16-26.43T694,620q14.6,0,23.5,9.56t8.9,26.56Q726.41,673.07,717.51,682.62Z"/><path class="cls-2" d="M923.58,564.85q-17.93-25.62-56.7-25.63-39,0-56.83,25.63t-17.79,69.44q0,44.09,17.79,69.84t56.83,25.76q38.77,0,56.7-25.76t17.92-69.84Q941.5,590.48,923.58,564.85ZM843,595.79q6.1-13.54,23.9-13.55,17.52,0,23.5,13.41c.45,1,.87,2.07,1.26,3.17l-54.48,45.71c-.19-3.24-.29-6.64-.29-10.24Q836.87,609.33,843,595.79Zm47.4,77.4q-6,13.68-23.5,13.68-17.79,0-23.9-13.68c-.48-1.07-.93-2.21-1.36-3.39l54.46-45.7c.18,3.22.28,6.61.28,10.19Q896.36,659.52,890.38,673.19Z"/><path class="cls-3" d="M390.93,664.09a229.65,229.65,0,0,0-27.88-8.1q-15.68-3.45-23-6.9t-7.3-10.36q0-6.11,4-9.43T348.44,626q9.82,0,16.34,5.17a23.6,23.6,0,0,1,8.36,14.21h42.49q-4.26-23.1-21.11-37.18t-45-14.07q-27.63,0-42.76,12.35t-15.13,32.26q0,15.4,7.7,24.3a44.74,44.74,0,0,0,18.32,12.88,189.21,189.21,0,0,0,27.09,7.43q16.45,3.72,23.76,7t7.31,11a12.07,12.07,0,0,1-4,9.43q-4,3.58-11.68,3.58-11.16,0-18.19-5t-8.1-14.61H290q4,24.71,22,38T360.13,746q17.79,0,30.8-5.57T410.85,725a38.27,38.27,0,0,0,6.9-22.57q0-15.66-8-25A46.18,46.18,0,0,0,390.93,664.09Z"/><path class="cls-3" d="M548.14,674.58q0,16.2-8,25t-21.78,8.77q-13.27,0-21.11-8.37t-7.83-23.5V596H444.31v86q0,29.73,15,46.73t40.5,17q16.72,0,29.34-7.7a49.26,49.26,0,0,0,19-20.72v26.82h45.67V596H548.14Z"/><path class="cls-3" d="M751.41,603.28a60,60,0,0,0-32.79-9.16q-17,0-29.22,7.7a44.79,44.79,0,0,0-17.79,21V547.65H626.2v196.5h45.41V717.33a44.69,44.69,0,0,0,17.79,21q12.21,7.71,29.22,7.7a60,60,0,0,0,32.79-9.16q14.48-9.17,22.84-26.42t8.36-40.36q0-23.37-8.36-40.5T751.41,603.28Zm-23.9,93.34q-8.89,9.55-23.5,9.56-14.34,0-23.5-9.82t-9.16-26.29q0-16.74,9.16-26.43T704,634q14.6,0,23.5,9.56t8.9,26.56Q736.41,687.07,727.51,696.62Z"/><path class="cls-3" d="M933.58,578.85q-17.93-25.62-56.7-25.63-39,0-56.83,25.63t-17.79,69.44q0,44.09,17.79,69.84t56.83,25.76q38.77,0,56.7-25.76t17.92-69.84Q951.5,604.48,933.58,578.85ZM853,609.79q6.1-13.54,23.9-13.55,17.52,0,23.5,13.41c.45,1,.87,2.07,1.26,3.17l-54.48,45.71c-.19-3.24-.29-6.64-.29-10.24Q846.87,623.33,853,609.79Zm47.4,77.4q-6,13.68-23.5,13.68-17.79,0-23.9-13.68c-.48-1.07-.93-2.21-1.36-3.39l54.46-45.7c.18,3.22.28,6.61.28,10.19Q906.36,673.52,900.38,687.19Z"/></svg>